<?xml version="1.0" encoding="UTF-8" standalone="no"?>
<!DOCTYPE svg PUBLIC "-//W3C//DTD SVG 1.1//EN"
 "http://www.w3.org/Graphics/SVG/1.1/DTD/svg11.dtd">
<!-- Generated by graphviz version 2.50.0 (0)
 -->
<!-- Title: Analysis Pages: 1 -->
<svg width="424pt" height="511pt"
 viewBox="0.00 0.00 423.70 511.48" xmlns="http://www.w3.org/2000/svg" xmlns:xlink="http://www.w3.org/1999/xlink">
<g id="graph0" class="graph" transform="scale(1 1) rotate(0) translate(4 507.48)">
<title>Analysis</title>
<polygon fill="white" stroke="transparent" points="-4,4 -4,-507.48 419.7,-507.48 419.7,4 -4,4"/>
<!-- start -->
<g id="node1" class="node">
<title>start</title>
<ellipse fill="none" stroke="black" cx="216.19" cy="-485.48" rx="27" ry="18"/>
<text text-anchor="middle" x="216.19" y="-481.78" font-family="Times,serif" font-size="14.00">start</text>
</g>
<!-- sanitize AIS vessel tracks -->
<g id="node2" class="node">
<title>sanitize AIS vessel tracks</title>
<ellipse fill="none" stroke="black" cx="216.19" cy="-413.48" rx="100.98" ry="18"/>
<text text-anchor="middle" x="216.19" y="-409.78" font-family="Times,serif" font-size="14.00">sanitize AIS vessel tracks</text>
</g>
<!-- start&#45;&gt;sanitize AIS vessel tracks -->
<g id="edge1" class="edge">
<title>start&#45;&gt;sanitize AIS vessel tracks</title>
<path fill="none" stroke="black" d="M216.19,-467.18C216.19,-459.46 216.19,-450.19 216.19,-441.59"/>
<polygon fill="black" stroke="black" points="219.69,-441.58 216.19,-431.58 212.69,-441.58 219.69,-441.58"/>
</g>
<!-- cluster vessel tracks -->
<g id="node3" class="node">
<title>cluster vessel tracks</title>
<ellipse fill="none" stroke="black" cx="216.19" cy="-341.48" rx="81.49" ry="18"/>
<text text-anchor="middle" x="216.19" y="-337.78" font-family="Times,serif" font-size="14.00">cluster vessel tracks</text>
</g>
<!-- sanitize AIS vessel tracks&#45;&gt;cluster vessel tracks -->
<g id="edge2" class="edge">
<title>sanitize AIS vessel tracks&#45;&gt;cluster vessel tracks</title>
<path fill="none" stroke="black" d="M216.19,-395.18C216.19,-387.46 216.19,-378.19 216.19,-369.59"/>
<polygon fill="black" stroke="black" points="219.69,-369.58 216.19,-359.58 212.69,-369.58 219.69,-369.58"/>
</g>
<!-- find matching wind farms -->
<g id="node4" class="node">
<title>find matching wind farms</title>
<ellipse fill="none" stroke="black" cx="216.19" cy="-269.48" rx="103.18" ry="18"/>
<text text-anchor="middle" x="216.19" y="-265.78" font-family="Times,serif" font-size="14.00">find matching wind farms</text>
</g>
<!-- cluster vessel tracks&#45;&gt;find matching wind farms -->
<g id="edge3" class="edge">
<title>cluster vessel tracks&#45;&gt;find matching wind farms</title>
<path fill="none" stroke="black" d="M216.19,-323.18C216.19,-315.46 216.19,-306.19 216.19,-297.59"/>
<polygon fill="black" stroke="black" points="219.69,-297.58 216.19,-287.58 212.69,-297.58 219.69,-297.58"/>
</g>
<!-- cluster windfarms into\nindividual turbines -->
<g id="node5" class="node">
<title>cluster windfarms into\nindividual turbines</title>
<ellipse fill="none" stroke="black" cx="216.19" cy="-188.61" rx="98.99" ry="26.74"/>
<text text-anchor="middle" x="216.19" y="-192.41" font-family="Times,serif" font-size="14.00">cluster windfarms into</text>
<text text-anchor="middle" x="216.19" y="-177.41" font-family="Times,serif" font-size="14.00">individual turbines</text>
</g>
<!-- find matching wind farms&#45;&gt;cluster windfarms into\nindividual turbines -->
<g id="edge4" class="edge">
<title>find matching wind farms&#45;&gt;cluster windfarms into\nindividual turbines</title>
<path fill="none" stroke="black" d="M216.19,-251.37C216.19,-243.88 216.19,-234.79 216.19,-225.91"/>
<polygon fill="black" stroke="black" points="219.69,-225.69 216.19,-215.69 212.69,-225.69 219.69,-225.69"/>
</g>
<!-- download ERA5 data for\nindividual turbines -->
<g id="node6" class="node">
<title>download ERA5 data for\nindividual turbines</title>
<ellipse fill="none" stroke="black" cx="108.19" cy="-98.87" rx="108.38" ry="26.74"/>
<text text-anchor="middle" x="108.19" y="-102.67" font-family="Times,serif" font-size="14.00">download ERA5 data for</text>
<text text-anchor="middle" x="108.19" y="-87.67" font-family="Times,serif" font-size="14.00">individual turbines</text>
</g>
<!-- cluster windfarms into\nindividual turbines&#45;&gt;download ERA5 data for\nindividual turbines -->
<g id="edge5" class="edge">
<title>cluster windfarms into\nindividual turbines&#45;&gt;download ERA5 data for\nindividual turbines</title>
<path fill="none" stroke="black" d="M185.82,-162.94C173.62,-153.03 159.43,-141.5 146.53,-131.02"/>
<polygon fill="black" stroke="black" points="148.67,-128.25 138.71,-124.66 144.26,-133.68 148.67,-128.25"/>
</g>
<!-- calculate installation\ntimes -->
<g id="node7" class="node">
<title>calculate installation\ntimes</title>
<ellipse fill="none" stroke="black" cx="325.19" cy="-98.87" rx="90.52" ry="26.74"/>
<text text-anchor="middle" x="325.19" y="-102.67" font-family="Times,serif" font-size="14.00">calculate installation</text>
<text text-anchor="middle" x="325.19" y="-87.67" font-family="Times,serif" font-size="14.00">times</text>
</g>
<!-- cluster windfarms into\nindividual turbines&#45;&gt;calculate installation\ntimes -->
<g id="edge6" class="edge">
<title>cluster windfarms into\nindividual turbines&#45;&gt;calculate installation\ntimes</title>
<path fill="none" stroke="black" d="M246.84,-162.94C259.25,-152.95 273.72,-141.3 286.82,-130.76"/>
<polygon fill="black" stroke="black" points="289.17,-133.36 294.76,-124.36 284.78,-127.9 289.17,-133.36"/>
</g>
<!-- correlations -->
<g id="node8" class="node">
<title>correlations</title>
<ellipse fill="none" stroke="black" cx="216.19" cy="-18" rx="51.99" ry="18"/>
<text text-anchor="middle" x="216.19" y="-14.3" font-family="Times,serif" font-size="14.00">correlations</text>
</g>
<!-- download ERA5 data for\nindividual turbines&#45;&gt;correlations -->
<g id="edge7" class="edge">
<title>download ERA5 data for\nindividual turbines&#45;&gt;correlations</title>
<path fill="none" stroke="black" d="M142.06,-73.13C156.41,-62.66 172.96,-50.57 186.78,-40.47"/>
<polygon fill="black" stroke="black" points="188.98,-43.2 194.99,-34.48 184.85,-37.55 188.98,-43.2"/>
</g>
<!-- calculate installation\ntimes&#45;&gt;correlations -->
<g id="edge8" class="edge">
<title>calculate installation\ntimes&#45;&gt;correlations</title>
<path fill="none" stroke="black" d="M291.89,-73.78C277.27,-63.2 260.24,-50.87 246.04,-40.6"/>
<polygon fill="black" stroke="black" points="247.76,-37.52 237.6,-34.5 243.65,-43.19 247.76,-37.52"/>
</g>
</g>
</svg>
